[img]http://img838.imageshack.us/img838/7093/75507506.jpg[/img]

TITLE:
A monster In Paris 2011 BRRiP CAM AUDiO READNFO XViD - INSPiRAL

IMDB: http://www.imdb.com/title/tt0961097/

SOURCES:

VIDEO - Un.Monstre.A.Paris.2011.FRENCH.BDRip THANKS
AUDIO - elvis THANKS
SUBS  - None Add

STATS:

Video
ID                               : 0
Format                           : MPEG-4 Visual
Format profile                   : Simple@L3
Format settings, BVOP            : 2
Format settings, QPel            : No
Format settings, GMC             : No warppoints
Format settings, Matrix          : Default (H.263)
Muxing mode                      : Packed bitstream
Codec ID                         : XVID
Codec ID/Hint                    : XviD
Duration                         : 1h 30mn
Bit rate                         : 942 Kbps
Width                            : 640 pixels
Height                           : 352 pixels
Display aspect ratio             : 16:9
Frame rate                       : 23.976 fps
Color space                      : YUV
Chroma subsampling               : 4:2:0
Bit depth                        : 8 bits
Scan type                        : Progressive
Compression mode                 : Lossy
Bits/(Pixel*Frame)               : 0.174
Stream size                      : 607 MiB (87%)
Writing library                  : XviD 1.0.3 (UTC 2004-12-20)

Audio
ID                               : 1
Format                           : MPEG Audio
Format version                   : Version 1
Format profile                   : Layer 3
Mode                             : Joint stereo
Mode extension                   : MS Stereo
Codec ID                         : 55
Codec ID/Hint                    : MP3
Duration                         : 1h 30mn
Bit rate mode                    : Constant
Bit rate                         : 128 Kbps
Channel(s)                       : 2 channels
Sampling rate                    : 44.1 KHz
Compression mode                 : Lossy
Stream size                      : 82.4 MiB (12%)
Alignment                        : Split accross interleaves
Interleave, duration             : 42 ms (1.00 video frame)
Interleave, preload duration     : 500 ms


NOTES:

Sources:
Found a french brrip but no grp name so thanks to whoever Video is mint so all good there.
Audio ....was looking through elvis's lost archives and found this,audio was really good cam audio,some noise,alittle bit
loud but overall very nice.

Workdone:
Non to the video ...doesn't need it....
Audio i took and synced it too the brrip and then restripped it and dropped in AA and gave it some lovin.
Then once again muxed to the video.

Overall v 9.5 a 7.5 .....really nice release IMHO.

SCREENS:

[img]http://img252.imageshack.us/img252/8343/44332858.png[/img]
[img]http://img196.imageshack.us/img196/9049/24269079.png[/img]
[img]http://img215.imageshack.us/img215/7006/87936461.png[/img]
[img]http://img717.imageshack.us/img717/6037/96863067.png[/img]
[img]http://img88.imageshack.us/img88/7294/60262830.png[/img]